# Blender v2.81 (sub 16) OBJ File: 'rotating_arrow.blend'
# www.blender.org
mtllib rotating_arrow.mtl
o Cylinder
v -0.477301 0.000000 0.490360
v -0.477301 0.000000 -0.490360
v -0.468129 -0.093117 0.490360
v -0.468130 -0.093117 -0.490360
v -0.440968 -0.182655 0.490360
v -0.440968 -0.182655 -0.490360
v -0.396861 -0.265174 0.490360
v -0.396861 -0.265174 -0.490360
v -0.337502 -0.337503 0.490360
v -0.337503 -0.337503 -0.490360
v -0.265174 -0.396861 0.490360
v -0.265174 -0.396861 -0.490360
v -0.182655 -0.440968 0.490360
v -0.182655 -0.440968 -0.490360
v -0.093117 -0.468129 0.490360
v -0.093117 -0.468129 -0.490360
v 0.000000 -0.477301 0.490360
v -0.000000 -0.477301 -0.490360
v 0.477301 0.000000 0.490360
v 0.477301 0.000000 -0.490360
v 0.468129 0.093117 0.490360
v 0.468129 0.093117 -0.490360
v 0.440968 0.182655 0.490360
v 0.440968 0.182655 -0.490360
v 0.396861 0.265174 0.490360
v 0.396861 0.265174 -0.490360
v 0.337502 0.337503 0.490360
v 0.337502 0.337503 -0.490360
v 0.265174 0.396861 0.490360
v 0.265174 0.396861 -0.490360
v 0.182655 0.440968 0.490360
v 0.182655 0.440968 -0.490360
v 0.093116 0.468130 0.490360
v 0.093116 0.468130 -0.490360
v -0.000000 0.477301 0.490360
v -0.000001 0.477301 -0.490360
v -0.093117 0.468129 0.490360
v -0.093117 0.468129 -0.490360
v -0.182656 0.440968 0.490360
v -0.182656 0.440968 -0.490360
v -0.265175 0.396861 0.490360
v -0.265175 0.396861 -0.490360
v -0.337503 0.337502 0.490360
v -0.337503 0.337502 -0.490360
v -0.396861 0.265173 0.490360
v -0.396861 0.265173 -0.490360
v -0.440968 0.182654 0.490360
v -0.440969 0.182654 -0.490360
v -0.468130 0.093116 0.490360
v -0.468130 0.093116 -0.490360
v -1.000000 -0.000000 0.490360
v -0.980785 -0.195090 0.490360
v -0.980785 -0.195090 -0.490360
v -1.000000 -0.000000 -0.490360
v -0.923880 -0.382684 0.490360
v -0.923880 -0.382684 -0.490360
v -0.831470 -0.555570 0.490360
v -0.831470 -0.555570 -0.490360
v -0.707107 -0.707107 0.490360
v -0.707107 -0.707107 -0.490360
v -0.555570 -0.831470 0.490360
v -0.555570 -0.831470 -0.490360
v -0.382683 -0.923880 0.490360
v -0.382683 -0.923880 -0.490360
v -0.195090 -0.980785 0.490360
v -0.195090 -0.980785 -0.490360
v 0.000000 -1.000000 0.490360
v -0.000000 -1.000000 -0.490360
v 1.000000 0.000000 0.490360
v 1.000000 0.000000 -0.490360
v 0.980785 0.195091 0.490360
v 0.980785 0.195091 -0.490360
v 0.923879 0.382684 0.490360
v 0.923879 0.382684 -0.490360
v 0.831469 0.555571 0.490360
v 0.831469 0.555571 -0.490360
v 0.707106 0.707107 0.490360
v 0.707106 0.707107 -0.490360
v 0.555570 0.831470 0.490360
v 0.555570 0.831470 -0.490360
v 0.382683 0.923880 0.490360
v 0.382683 0.923880 -0.490360
v 0.195089 0.980785 0.490360
v 0.195089 0.980785 -0.490360
v -0.000001 1.000000 0.490360
v -0.000001 1.000000 -0.490360
v -0.195091 0.980785 0.490360
v -0.195091 0.980785 -0.490360
v -0.382684 0.923879 0.490360
v -0.382685 0.923879 -0.490360
v -0.555571 0.831469 0.490360
v -0.555571 0.831469 -0.490360
v -0.707108 0.707106 0.490360
v -0.707108 0.707106 -0.490360
v -0.831470 0.555569 0.490360
v -0.831470 0.555569 -0.490360
v -0.923880 0.382682 0.490360
v -0.923880 0.382682 -0.490360
v -0.980786 0.195089 0.490360
v -0.980786 0.195089 -0.490360
v -0.000000 -1.000000 -0.490360
v 0.000000 -1.000000 0.490360
v -0.000000 -0.477301 -0.490360
v 0.000000 -0.477301 0.490360
v -0.000000 -1.000000 -0.490360
v 0.000000 -1.000000 0.490360
v -0.000000 -0.477301 -0.490360
v 0.000000 -0.477301 0.490360
v -0.000000 -1.273813 -0.490360
v 0.000000 -1.273813 0.490360
v -0.000000 -0.203487 -0.490360
v 0.000000 -0.203487 0.490360
v 0.799167 -0.738650 -0.490360
v 0.799167 -0.738650 0.490360
vt 1.000000 0.500000
vt 1.000000 1.000000
vt 0.968750 1.000000
vt 0.968750 0.500000
vt 0.937500 1.000000
vt 0.937500 0.500000
vt 0.906250 1.000000
vt 0.906250 0.500000
vt 0.875000 1.000000
vt 0.875000 0.500000
vt 0.843750 1.000000
vt 0.843750 0.500000
vt 0.812500 1.000000
vt 0.812500 0.500000
vt 0.781250 1.000000
vt 0.781250 0.500000
vt 0.750000 1.000000
vt 0.750000 0.500000
vt 0.500000 0.500000
vt 0.500000 1.000000
vt 0.468750 1.000000
vt 0.468750 0.500000
vt 0.437500 1.000000
vt 0.437500 0.500000
vt 0.406250 1.000000
vt 0.406250 0.500000
vt 0.375000 1.000000
vt 0.375000 0.500000
vt 0.343750 1.000000
vt 0.343750 0.500000
vt 0.312500 1.000000
vt 0.312500 0.500000
vt 0.281250 1.000000
vt 0.281250 0.500000
vt 0.250000 1.000000
vt 0.250000 0.500000
vt 0.218750 1.000000
vt 0.218750 0.500000
vt 0.187500 1.000000
vt 0.187500 0.500000
vt 0.156250 1.000000
vt 0.156250 0.500000
vt 0.125000 1.000000
vt 0.125000 0.500000
vt 0.093750 1.000000
vt 0.093750 0.500000
vt 0.062500 1.000000
vt 0.062500 0.500000
vt 0.031250 1.000000
vt 0.031250 0.500000
vt 0.000000 1.000000
vt 0.000000 0.500000
vt 0.772348 0.362351
vt 0.750000 0.364552
vt 0.750000 0.490000
vt 0.796822 0.485388
vt 0.250000 0.364552
vt 0.272348 0.362351
vt 0.296822 0.485388
vt 0.250000 0.490000
vt 0.793837 0.355832
vt 0.841844 0.471731
vt 0.293837 0.355832
vt 0.341844 0.471731
vt 0.813642 0.345247
vt 0.883337 0.449553
vt 0.313642 0.345247
vt 0.383337 0.449553
vt 0.831001 0.331001
vt 0.919706 0.419706
vt 0.331000 0.331000
vt 0.419706 0.419706
vt 0.845247 0.313642
vt 0.949553 0.383337
vt 0.345247 0.313642
vt 0.449553 0.383337
vt 0.855832 0.293837
vt 0.971731 0.341844
vt 0.355832 0.293837
vt 0.471731 0.341844
vt 0.862351 0.272348
vt 0.985388 0.296822
vt 0.362351 0.272348
vt 0.485388 0.296822
vt 0.864552 0.250000
vt 0.990000 0.250000
vt 0.364552 0.250000
vt 0.490000 0.250000
vt 0.727652 0.137649
vt 0.750000 0.135448
vt 0.750000 0.010000
vt 0.703178 0.014612
vt 0.250000 0.135448
vt 0.227652 0.137649
vt 0.203178 0.014612
vt 0.250000 0.010000
vt 0.706163 0.144168
vt 0.658156 0.028269
vt 0.206163 0.144167
vt 0.158156 0.028269
vt 0.686358 0.154753
vt 0.616663 0.050447
vt 0.186358 0.154753
vt 0.116663 0.050447
vt 0.668999 0.169000
vt 0.580294 0.080294
vt 0.168999 0.169000
vt 0.080294 0.080294
vt 0.654753 0.186358
vt 0.550447 0.116663
vt 0.154753 0.186358
vt 0.050447 0.116663
vt 0.644168 0.206163
vt 0.528269 0.158156
vt 0.144168 0.206163
vt 0.028269 0.158156
vt 0.637649 0.227652
vt 0.514611 0.203179
vt 0.137649 0.227652
vt 0.014611 0.203179
vt 0.635448 0.250000
vt 0.510000 0.250000
vt 0.135448 0.250000
vt 0.010000 0.250000
vt 0.637649 0.272348
vt 0.514612 0.296822
vt 0.137649 0.272348
vt 0.014612 0.296822
vt 0.644168 0.293837
vt 0.528269 0.341844
vt 0.144168 0.293837
vt 0.028269 0.341844
vt 0.654753 0.313642
vt 0.550447 0.383337
vt 0.154753 0.313642
vt 0.050447 0.383337
vt 0.669000 0.331001
vt 0.580295 0.419706
vt 0.169000 0.331001
vt 0.080295 0.419706
vt 0.686358 0.345247
vt 0.616663 0.449553
vt 0.186358 0.345247
vt 0.116663 0.449553
vt 0.706163 0.355833
vt 0.658156 0.471731
vt 0.206163 0.355833
vt 0.158156 0.471731
vt 0.727652 0.362351
vt 0.703179 0.485389
vt 0.227652 0.362351
vt 0.203179 0.485389
vt 0.864552 0.250000
vt 0.364552 0.250000
vt 0.990000 0.250000
vt 0.750000 1.000000
vt 0.750000 0.500000
vt 0.490000 0.250000
vt 0.990000 0.250000
vt 0.864552 0.250000
vt 0.364552 0.250000
vt 0.750000 1.000000
vt 0.750000 0.500000
vt 0.490000 0.250000
vt 0.990000 0.250000
vt 0.864552 0.250000
vt 0.364552 0.250000
vt 0.750000 1.000000
vt 0.750000 0.500000
vt 0.490000 0.250000
vt 0.750000 1.000000
vt 0.750000 0.500000
vt 0.490000 0.250000
vt 0.864552 0.250000
vt 0.364552 0.250000
vn -0.9952 -0.0980 0.0000
vn -0.9569 -0.2903 0.0000
vn -0.8819 -0.4714 0.0000
vn -0.7730 -0.6344 0.0000
vn -0.6344 -0.7730 0.0000
vn -0.4714 -0.8819 0.0000
vn -0.2903 -0.9569 0.0000
vn -0.0980 -0.9952 -0.0000
vn 0.9952 0.0980 0.0000
vn 0.9569 0.2903 0.0000
vn 0.8819 0.4714 0.0000
vn 0.7730 0.6344 0.0000
vn 0.6344 0.7730 0.0000
vn 0.4714 0.8819 -0.0000
vn 0.2903 0.9569 0.0000
vn 0.0980 0.9952 0.0000
vn -0.0980 0.9952 0.0000
vn -0.2903 0.9569 0.0000
vn -0.4714 0.8819 0.0000
vn -0.6344 0.7730 0.0000
vn -0.7730 0.6344 0.0000
vn -0.8819 0.4714 0.0000
vn -0.9569 0.2903 0.0000
vn -0.9952 0.0980 0.0000
vn 0.0000 0.0000 1.0000
vn 0.0000 0.0000 -1.0000
vn 0.9952 -0.0980 -0.0000
vn 0.9569 -0.2903 -0.0000
vn 0.8819 -0.4714 -0.0000
vn 0.7730 -0.6344 -0.0000
vn 0.6344 -0.7730 -0.0000
vn 0.4714 -0.8819 -0.0000
vn 0.2903 -0.9569 0.0000
vn 0.0980 -0.9952 0.0000
vn 0.0000 -1.0000 -0.0000
vn -1.0000 0.0000 0.0000
vn 0.5564 -0.8309 -0.0000
vn 0.5564 0.8309 -0.0000
usemtl None
s off
f 51/1/1 54/2/1 53/3/1 52/4/1
f 52/4/2 53/3/2 56/5/2 55/6/2
f 55/6/3 56/5/3 58/7/3 57/8/3
f 57/8/4 58/7/4 60/9/4 59/10/4
f 59/10/5 60/9/5 62/11/5 61/12/5
f 61/12/6 62/11/6 64/13/6 63/14/6
f 63/14/7 64/13/7 66/15/7 65/16/7
f 65/16/8 66/15/8 68/17/8 67/18/8
f 69/19/9 70/20/9 72/21/9 71/22/9
f 71/22/10 72/21/10 74/23/10 73/24/10
f 73/24/11 74/23/11 76/25/11 75/26/11
f 75/26/12 76/25/12 78/27/12 77/28/12
f 77/28/13 78/27/13 80/29/13 79/30/13
f 79/30/14 80/29/14 82/31/14 81/32/14
f 81/32/15 82/31/15 84/33/15 83/34/15
f 83/34/16 84/33/16 86/35/16 85/36/16
f 85/36/17 86/35/17 88/37/17 87/38/17
f 87/38/18 88/37/18 90/39/18 89/40/18
f 89/40/19 90/39/19 92/41/19 91/42/19
f 91/42/20 92/41/20 94/43/20 93/44/20
f 93/44/21 94/43/21 96/45/21 95/46/21
f 95/46/22 96/45/22 98/47/22 97/48/22
f 97/48/23 98/47/23 100/49/23 99/50/23
f 99/50/24 100/49/24 54/51/24 51/52/24
f 3/53/25 1/54/25 51/55/25 52/56/25
f 2/57/26 4/58/26 53/59/26 54/60/26
f 5/61/25 3/53/25 52/56/25 55/62/25
f 4/58/26 6/63/26 56/64/26 53/59/26
f 7/65/25 5/61/25 55/62/25 57/66/25
f 6/63/26 8/67/26 58/68/26 56/64/26
f 9/69/25 7/65/25 57/66/25 59/70/25
f 8/67/26 10/71/26 60/72/26 58/68/26
f 11/73/25 9/69/25 59/70/25 61/74/25
f 10/71/26 12/75/26 62/76/26 60/72/26
f 13/77/25 11/73/25 61/74/25 63/78/25
f 12/75/26 14/79/26 64/80/26 62/76/26
f 15/81/25 13/77/25 63/78/25 65/82/25
f 14/79/26 16/83/26 66/84/26 64/80/26
f 17/85/25 15/81/25 65/82/25 67/86/25
f 16/83/26 18/87/26 68/88/26 66/84/26
f 21/89/25 19/90/25 69/91/25 71/92/25
f 20/93/26 22/94/26 72/95/26 70/96/26
f 23/97/25 21/89/25 71/92/25 73/98/25
f 22/94/26 24/99/26 74/100/26 72/95/26
f 25/101/25 23/97/25 73/98/25 75/102/25
f 24/99/26 26/103/26 76/104/26 74/100/26
f 27/105/25 25/101/25 75/102/25 77/106/25
f 26/103/26 28/107/26 78/108/26 76/104/26
f 29/109/25 27/105/25 77/106/25 79/110/25
f 28/107/26 30/111/26 80/112/26 78/108/26
f 31/113/25 29/109/25 79/110/25 81/114/25
f 30/111/26 32/115/26 82/116/26 80/112/26
f 33/117/25 31/113/25 81/114/25 83/118/25
f 32/115/26 34/119/26 84/120/26 82/116/26
f 35/121/25 33/117/25 83/118/25 85/122/25
f 34/119/26 36/123/26 86/124/26 84/120/26
f 37/125/25 35/121/25 85/122/25 87/126/25
f 36/123/26 38/127/26 88/128/26 86/124/26
f 39/129/25 37/125/25 87/126/25 89/130/25
f 38/127/26 40/131/26 90/132/26 88/128/26
f 41/133/25 39/129/25 89/130/25 91/134/25
f 40/131/26 42/135/26 92/136/26 90/132/26
f 43/137/25 41/133/25 91/134/25 93/138/25
f 42/135/26 44/139/26 94/140/26 92/136/26
f 45/141/25 43/137/25 93/138/25 95/142/25
f 44/139/26 46/143/26 96/144/26 94/140/26
f 47/145/25 45/141/25 95/142/25 97/146/25
f 46/143/26 48/147/26 98/148/26 96/144/26
f 49/149/25 47/145/25 97/146/25 99/150/25
f 48/147/26 50/151/26 100/152/26 98/148/26
f 1/54/25 49/149/25 99/150/25 51/55/25
f 50/151/26 2/57/26 54/60/26 100/152/26
f 2/57/27 50/151/27 49/149/27 1/54/27
f 50/151/28 48/147/28 47/145/28 49/149/28
f 48/147/29 46/143/29 45/141/29 47/145/29
f 46/143/30 44/139/30 43/137/30 45/141/30
f 44/139/31 42/135/31 41/133/31 43/137/31
f 42/135/32 40/131/32 39/129/32 41/133/32
f 40/131/33 38/127/33 37/125/33 39/129/33
f 38/127/34 36/123/34 35/121/34 37/125/34
f 36/123/8 34/119/8 33/117/8 35/121/8
f 34/119/7 32/115/7 31/113/7 33/117/7
f 32/115/6 30/111/6 29/109/6 31/113/6
f 30/111/5 28/107/5 27/105/5 29/109/5
f 28/107/4 26/103/4 25/101/4 27/105/4
f 26/103/3 24/99/3 23/97/3 25/101/3
f 24/99/2 22/94/2 21/89/2 23/97/2
f 22/94/1 20/93/1 19/90/1 21/89/1
f 18/87/16 16/83/16 15/81/16 17/85/16
f 16/83/15 14/79/15 13/77/15 15/81/15
f 14/79/14 12/75/14 11/73/14 13/77/14
f 12/75/13 10/71/13 9/69/13 11/73/13
f 10/71/12 8/67/12 7/65/12 9/69/12
f 8/67/11 6/63/11 5/61/11 7/65/11
f 6/63/10 4/58/10 3/53/10 5/61/10
f 4/58/9 2/57/9 1/54/9 3/53/9
f 19/90/35 20/93/35 70/20/35 69/19/35
f 18/87/25 17/85/25 104/153/25 103/154/25
f 17/85/25 67/86/25 102/155/25 104/153/25
f 67/18/25 68/17/25 101/156/25 102/157/25
f 68/88/25 18/87/25 103/154/25 101/158/25
f 104/153/25 102/155/25 106/159/25 108/160/25
f 103/154/25 104/153/25 108/160/25 107/161/25
f 102/157/25 101/156/25 105/162/25 106/163/25
f 101/158/25 103/154/25 107/161/25 105/164/25
f 108/160/25 106/159/25 110/165/25 112/166/25
f 107/161/36 108/160/36 112/166/36 111/167/36
f 106/163/36 105/162/36 109/168/36 110/169/36
f 105/164/25 107/161/25 111/167/25 109/170/25
f 110/169/37 109/168/37 113/171/37 114/172/37
f 109/170/26 111/167/26 113/173/26
f 112/166/25 110/165/25 114/174/25
f 111/167/38 112/166/38 114/174/38 113/175/38
