# Blender v2.81 (sub 16) OBJ File: 'arrow.blend'
# www.blender.org
mtllib arrow_side_fb.mtl
o Cube
v 0.000000 1.000000 -0.157449
v -0.589634 -0.001879 -0.157449
v 0.262668 -0.001880 0.157449
v 0.589634 -0.001880 -0.157449
v 0.000000 1.000000 0.157449
v -0.589634 -0.001879 0.157449
v 0.262668 -0.001880 -0.157449
v 0.589634 -0.001880 0.157449
v -0.262776 -0.001879 -0.157449
v -0.262776 -0.001879 0.157449
v 0.262668 -0.414868 -0.157449
v 0.262668 -0.414868 0.157449
v -0.262776 -0.414868 -0.157449
v -0.262776 -0.414868 0.157449
v 0.000717 0.203458 -0.157449
v 0.000717 0.203458 0.157449
vt 0.125000 0.500000
vt 0.375000 0.500000
vt 0.375000 0.563121
vt 0.125000 0.564242
vt 0.375000 0.750000
vt 0.625000 0.750000
vt 0.625000 1.000000
vt 0.375000 1.000000
vt 0.375000 0.000000
vt 0.625000 0.250000
vt 0.432321 0.153661
vt 0.375000 0.125000
vt 0.125000 0.625000
vt 0.375000 0.625000
vt 0.125000 0.750000
vt 0.439990 0.657495
vt 0.375000 0.250000
vt 0.625000 0.500000
vt 0.375000 0.625000
vt 0.375000 0.563121
vt 0.375000 0.185758
vt 0.125000 0.564242
vt 0.125000 0.625000
vt 0.375000 0.185758
vt 0.375000 0.125000
vn -0.0000 -1.0000 -0.0000
vn 0.8618 0.5072 -0.0000
vn 0.0000 -0.0000 1.0000
vn -0.0000 -0.0000 -1.0000
vn -0.8618 0.5072 0.0000
vn 1.0000 -0.0000 -0.0000
vn -1.0000 0.0000 0.0000
usemtl Material
s off
f 6/1/1 2/2/1 9/3/1 10/4/1
f 4/5/2 1/6/2 5/7/2 8/8/2
f 8/9/3 5/10/3 16/11/3 3/12/3
f 3/13/1 7/14/1 4/5/1 8/15/1
f 2/2/4 1/6/4 15/16/4 9/3/4
f 6/17/5 5/10/5 1/18/5 2/2/5
f 9/3/4 7/14/4 11/19/4 13/20/4
f 7/14/4 15/16/4 1/6/4 4/5/4
f 3/12/3 16/11/3 10/21/3
f 14/22/1 13/20/1 11/19/1 12/23/1
f 7/14/6 3/13/6 12/23/6 11/19/6
f 3/12/3 10/21/3 14/24/3 12/25/3
f 10/4/7 9/3/7 13/20/7 14/22/7
f 9/3/4 15/16/4 7/14/4
f 10/21/3 16/11/3 5/10/3 6/17/3
