# Blender v2.81 (sub 16) OBJ File: 'play_icon.blend'
# www.blender.org
mtllib play_icon.mtl
o Cube
v 1.000000 0.000000 0.484960
v -1.000000 1.000000 0.484960
v -1.000000 -1.000000 0.484960
v 1.000000 0.000000 -0.484960
v -1.000000 1.000000 -0.484960
v -1.000000 -1.000000 -0.484960
vt 0.625000 0.500000
vt 0.875000 0.500000
vt 0.875000 0.750000
vt 0.625000 0.750000
vt 0.375000 0.750000
vt 0.625000 1.000000
vt 0.375000 1.000000
vt 0.125000 0.500000
vt 0.375000 0.500000
vt 0.125000 0.750000
vt 0.375000 0.000000
vt 0.625000 0.000000
vt 0.375000 0.250000
vn 0.4472 0.8944 0.0000
vn -1.0000 0.0000 0.0000
vn 0.4472 -0.8944 0.0000
vn -0.0000 0.0000 1.0000
vn -0.4367 -0.7066 -0.5568
vn -0.4367 0.7066 -0.5568
vn 0.8346 0.0000 -0.5508
usemtl Material
s off
f 1/1/1 4/2/1 5/3/1 2/4/1
f 3/5/2 2/4/2 5/6/2 6/7/2
f 4/8/3 1/9/3 3/5/3 6/10/3
f 1/1/4 2/4/4 3/5/4
s 1
f 6/11/5 5/12/6 4/13/7
